<?xml version="1.0" standalone="no"?>
<!DOCTYPE svg PUBLIC "-//W3C//DTD SVG 20010904//EN"
 "http://www.w3.org/TR/2001/REC-SVG-20010904/DTD/svg10.dtd">
<svg version="1.0" xmlns="http://www.w3.org/2000/svg"
 width="3000.000000pt" height="3000.000000pt" viewBox="0 0 3000.000000 3000.000000"
 preserveAspectRatio="xMidYMid meet">
<metadata>
Created by potrace 1.11, written by Peter Selinger 2001-2013
</metadata>
<g transform="translate(0.000000,3000.000000) scale(0.100000,-0.100000)"
fill="#000000" stroke="none">
<path d="M780 26391 c0 -11 -7 -27 -16 -35 -8 -9 -12 -16 -7 -16 4 0 8 -101 8
-225 0 -205 -4 -249 -18 -212 -3 6 -6 2 -6 -10 -1 -17 3 -21 16 -16 11 5 14 3
8 -6 -4 -8 -2 -17 6 -22 8 -5 121 -9 252 -9 204 0 237 -2 237 -15 0 -8 4 -15
9 -15 5 0 17 -3 26 -6 12 -5 16 -2 13 11 -2 10 3 20 11 23 9 3 11 -1 6 -17 -6
-21 -4 -21 110 -21 111 0 116 -1 125 -22 7 -19 9 -19 9 -5 1 10 5 16 11 12 5
-3 7 -12 3 -20 -4 -13 10 -15 85 -15 86 0 91 -1 94 -22 2 -13 10 -23 18 -24 8
-1 36 -2 63 -2 40 -2 47 -5 47 -22 0 -15 7 -20 30 -21 52 -2 55 -4 58 -26 3
-19 10 -23 43 -23 32 0 39 -3 39 -20 0 -11 5 -21 10 -21 6 -1 15 -3 20 -4 6
-1 21 -3 35 -4 18 -1 25 -7 25 -20 0 -15 10 -21 40 -26 30 -5 40 -11 40 -26 0
-14 7 -19 25 -19 20 0 25 -5 25 -25 0 -20 5 -25 26 -25 19 0 25 -4 20 -15 -3
-8 -1 -15 4 -15 6 0 10 5 10 10 0 6 5 10 10 10 6 0 10 -8 8 -17 -2 -12 4 -19
20 -21 14 -2 22 -10 22 -23 0 -14 7 -19 25 -19 20 0 25 -5 25 -25 0 -18 5 -25
19 -25 13 0 21 -8 23 -22 2 -15 11 -24 26 -26 14 -2 22 -10 22 -23 0 -12 7
-19 20 -19 15 0 20 -7 20 -25 0 -18 5 -25 20 -25 13 0 20 -7 20 -20 0 -13 9
-22 25 -26 15 -4 25 -13 25 -24 0 -10 9 -20 20 -23 12 -3 20 -14 20 -26 0 -14
6 -21 20 -21 15 0 20 -7 20 -25 0 -18 5 -25 19 -25 13 0 21 -8 23 -22 2 -15
10 -23 23 -23 11 0 21 -6 21 -12 1 -7 2 -17 3 -22 0 -5 10 -11 21 -14 12 -3
20 -14 20 -26 0 -14 6 -21 20 -21 15 0 20 -7 20 -25 0 -18 5 -25 20 -25 15 0
20 -7 20 -25 0 -18 5 -25 19 -25 13 0 20 -9 25 -30 3 -17 12 -30 20 -30 9 0
18 -14 22 -35 4 -25 11 -35 25 -35 14 0 19 -7 19 -25 0 -18 5 -25 20 -25 15 0
20 -7 20 -25 0 -18 5 -25 20 -25 11 0 21 -4 21 -10 1 -5 2 -16 3 -22 0 -7 11
-14 24 -16 19 -3 22 -9 22 -52 0 -38 4 -50 18 -53 16 -4 16 -5 0 -6 -17 -1
-18 -315 -18 -6441 l0 -6440 21 0 c12 0 17 -4 14 -11 -4 -6 -13 -8 -21 -5 -8
3 -14 1 -14 -4 0 -5 8 -11 18 -13 16 -4 16 -5 0 -6 -17 -1 -18 -26 -19 -368
-1 -203 -1 -374 0 -380 1 -7 -5 -13 -14 -13 -11 0 -15 -11 -15 -39 0 -22 3
-41 8 -44 4 -2 1 -2 -5 -1 -10 3 -13 -20 -13 -89 0 -156 -12 -287 -25 -287
-15 0 -25 -54 -25 -142 0 -44 -4 -68 -12 -71 -10 -4 -10 -8 0 -15 11 -7 9 -10
-7 -15 -18 -4 -20 -14 -23 -98 -2 -76 -6 -94 -18 -94 -10 0 -16 -12 -18 -40
-4 -74 -13 -105 -27 -105 -10 0 -15 -11 -16 -30 -1 -16 -3 -34 -4 -40 -1 -5
-3 -23 -4 -40 -1 -23 -6 -30 -21 -30 -17 0 -20 -7 -20 -45 0 -38 -3 -45 -20
-45 -17 0 -20 -7 -20 -46 0 -37 -4 -47 -20 -51 -13 -3 -20 -14 -20 -29 0 -13
-4 -24 -10 -24 -5 0 -9 -3 -9 -7 3 -21 -2 -33 -16 -33 -9 0 -15 -9 -15 -25 0
-18 -5 -25 -20 -25 -15 0 -20 -7 -20 -25 0 -18 -5 -25 -20 -25 -15 0 -20 -7
-20 -25 0 -18 -5 -25 -19 -25 -16 0 -21 -9 -27 -45 -5 -38 -10 -45 -29 -45
-36 0 -55 -11 -55 -31 0 -12 -7 -19 -20 -19 -13 0 -20 -7 -20 -19 0 -13 -8
-21 -22 -23 -15 -2 -24 -11 -26 -25 -2 -15 -10 -23 -23 -23 -12 0 -19 -7 -19
-19 0 -15 -10 -21 -39 -26 -26 -4 -41 -13 -44 -25 -3 -12 -18 -20 -46 -25 -31
-5 -41 -11 -41 -26 0 -16 -7 -19 -40 -19 -36 0 -40 -2 -40 -25 0 -23 -4 -25
-45 -25 -37 0 -45 -3 -45 -19 0 -19 -39 -31 -102 -31 -21 0 -28 -5 -28 -20 0
-16 -7 -20 -34 -20 -62 0 -96 -11 -96 -31 0 -17 -9 -19 -85 -19 -77 0 -85 -2
-85 -19 0 -20 -32 -26 -170 -34 -34 -1 -45 -6 -44 -18 1 -14 -18 -17 -129 -22
-80 -4 -133 -11 -138 -18 -5 -8 -8 -7 -12 2 -4 10 -6 9 -6 -3 -1 -9 5 -19 12
-21 6 -3 -57 -6 -140 -6 -123 -1 -153 -4 -153 -15 0 -16 -69 -36 -127 -37 -38
0 -94 -17 -63 -18 13 -1 15 -34 13 -239 -1 -222 0 -238 18 -258 10 -11 17 -22
15 -25 -2 -2 1331 -4 2964 -4 1925 0 2968 3 2967 10 -1 5 8 11 21 13 l22 3 0
260 0 259 -54 0 c-54 0 -102 17 -101 35 0 6 -47 11 -117 13 -114 3 -118 3
-119 25 -1 21 -1 20 -8 -3 -7 -24 -8 -24 -15 -4 -8 25 -46 34 -148 34 -54 0
-68 3 -68 15 0 8 5 15 11 15 5 0 7 -5 4 -10 -3 -5 -1 -10 5 -10 7 0 10 6 8 13
-3 7 -27 13 -64 14 -112 5 -144 12 -144 34 0 17 -8 19 -84 19 -80 0 -85 1 -88
23 -3 24 -4 24 -78 26 -43 1 -50 4 -50 21 0 16 -7 20 -37 21 -58 2 -88 13 -85
32 2 12 -8 17 -45 19 -29 2 -48 8 -49 16 -1 6 -2 17 -3 22 0 6 -19 10 -41 10
-32 0 -40 4 -40 19 0 13 -11 21 -42 27 -31 7 -43 14 -42 27 1 12 -6 17 -25 19
-14 0 -33 1 -41 2 -8 1 -16 11 -18 24 -3 16 -10 22 -28 22 -13 0 -23 3 -23 8
4 23 -5 32 -36 38 -19 3 -36 10 -36 15 -1 5 -2 15 -3 22 0 6 -11 13 -23 15
-15 2 -23 10 -23 23 0 12 -7 19 -19 19 -13 0 -21 8 -23 22 -2 15 -11 24 -25
26 -17 3 -23 10 -23 28 0 17 -5 24 -20 24 -15 0 -20 7 -20 25 0 18 -5 25 -19
25 -15 0 -21 10 -26 39 -4 27 -13 41 -26 44 -11 3 -19 14 -19 25 0 11 -9 22
-20 25 -16 4 -20 14 -20 46 0 34 -3 41 -20 41 -16 0 -20 7 -20 30 0 17 -5 30
-11 30 -6 0 -9 7 -5 15 3 9 0 15 -8 15 -9 0 -16 18 -20 49 -5 37 -11 50 -26
54 -16 4 -20 14 -20 51 0 39 -3 46 -20 46 -18 0 -20 7 -20 69 0 60 -2 69 -20
74 -17 4 -20 14 -20 59 0 75 -11 128 -25 128 -16 0 -24 52 -26 155 -1 44 -3
72 -6 63 -2 -10 -9 -18 -15 -18 -5 0 -8 7 -4 15 3 8 1 15 -4 15 -6 0 -10 49
-10 120 0 100 -2 120 -15 120 -11 0 -15 11 -15 39 0 22 3 41 8 44 4 2 1 2 -5
1 -10 -3 -13 43 -13 205 0 115 -3 216 -6 225 -3 9 -12 16 -20 16 -16 0 -18 11
-5 25 5 6 11 32 14 58 3 36 1 50 -9 54 -20 8 -17 23 3 17 17 -5 17 -5 1 9 -17
13 -18 306 -18 5880 0 5860 0 5865 20 5860 13 -3 20 -14 20 -29 0 -17 6 -24
20 -24 13 0 20 -7 20 -20 0 -13 7 -20 20 -20 15 0 20 -7 20 -25 0 -18 5 -25
19 -25 16 0 21 -9 27 -45 5 -35 10 -45 25 -45 14 0 19 -7 19 -25 0 -18 5 -25
20 -25 15 0 20 -7 20 -25 0 -18 5 -25 19 -25 13 0 21 -8 23 -22 2 -15 11 -24
26 -26 19 -3 22 -9 22 -48 0 -37 3 -44 20 -44 14 0 20 -7 20 -21 0 -12 8 -23
20 -26 11 -3 20 -14 20 -24 0 -11 6 -19 13 -19 17 0 77 -92 77 -118 0 -11 8
-22 20 -25 12 -3 20 -14 20 -26 0 -12 6 -21 14 -21 8 0 16 -6 19 -13 3 -8 52
-85 109 -173 183 -279 792 -1225 2553 -3964 172 -267 444 -690 605 -940 161
-250 359 -558 440 -685 81 -126 293 -457 472 -735 671 -1043 966 -1503 1128
-1755 92 -143 247 -384 344 -535 101 -155 180 -289 183 -307 3 -18 10 -31 15
-30 6 1 15 -7 21 -18 7 -11 22 -33 35 -48 12 -16 22 -39 22 -53 0 -17 6 -24
20 -24 14 0 20 -7 20 -23 0 -12 9 -28 20 -35 11 -7 20 -17 20 -24 0 -6 11 -26
25 -44 14 -18 25 -39 25 -46 0 -7 9 -19 20 -26 11 -7 20 -17 20 -23 0 -6 7
-17 15 -26 9 -8 19 -29 22 -46 4 -17 14 -32 25 -34 10 -3 18 -14 18 -24 0 -10
7 -22 16 -27 8 -5 21 -26 29 -48 8 -21 14 -35 15 -31 1 18 30 -23 30 -42 0
-12 6 -21 14 -21 8 0 21 -12 29 -27 32 -63 53 -97 70 -115 9 -10 17 -25 17
-33 0 -8 5 -15 11 -15 5 0 17 -17 26 -37 8 -21 21 -42 29 -46 8 -4 14 -14 14
-22 0 -8 8 -22 18 -32 25 -26 72 -100 72 -115 0 -7 9 -19 20 -26 11 -7 20 -17
20 -23 0 -6 11 -25 25 -43 14 -18 25 -37 25 -43 0 -5 9 -18 20 -28 11 -10 20
-25 20 -34 0 -9 9 -22 20 -29 11 -7 20 -17 20 -23 0 -6 26 -50 59 -98 32 -48
66 -100 75 -117 9 -16 24 -41 34 -55 9 -14 34 -52 55 -83 20 -31 37 -61 37
-66 0 -6 4 -10 9 -10 9 0 81 -113 81 -128 0 -5 7 -12 15 -16 8 -3 15 -12 15
-20 0 -8 6 -21 13 -28 14 -14 77 -107 77 -113 0 -2 13 -23 28 -47 16 -24 53
-81 84 -128 30 -47 85 -131 121 -187 37 -56 67 -107 67 -113 0 -6 11 -15 25
-20 15 -6 25 -17 25 -30 0 -13 7 -20 20 -20 15 0 20 -7 20 -25 0 -18 5 -25 20
-25 17 0 20 -7 20 -45 0 -38 3 -45 20 -45 15 0 20 -7 20 -25 0 -18 5 -25 19
-25 14 0 20 -10 25 -39 4 -27 12 -40 26 -44 14 -3 20 -14 20 -31 0 -19 5 -26
20 -26 15 0 20 -7 20 -25 0 -18 5 -25 19 -25 14 0 20 -10 25 -44 5 -32 12 -45
26 -49 12 -3 20 -14 20 -26 0 -14 6 -21 20 -21 15 0 20 -7 20 -25 0 -18 5 -25
20 -25 17 0 20 -7 20 -44 0 -39 3 -45 23 -48 14 -2 23 -11 25 -25 2 -15 10
-23 23 -23 16 0 19 -7 19 -41 0 -32 4 -42 20 -46 13 -3 20 -14 20 -29 0 -17 6
-24 20 -24 15 0 20 -7 20 -25 0 -18 5 -25 19 -25 16 0 21 -9 27 -45 5 -35 10
-45 25 -45 14 0 19 -7 19 -25 0 -18 5 -25 19 -25 15 0 20 -10 25 -45 5 -29 12
-45 21 -45 8 0 17 -11 21 -25 4 -16 13 -25 25 -25 14 0 19 -7 19 -29 0 -21 5
-28 18 -27 13 1 18 -8 20 -42 3 -34 7 -42 23 -42 14 0 19 -7 19 -25 0 -18 5
-25 19 -25 16 0 21 -9 27 -45 5 -35 10 -45 25 -45 14 0 19 -7 19 -25 0 -18 5
-25 20 -25 15 0 20 -7 20 -25 0 -18 5 -25 19 -25 15 0 20 -10 25 -45 6 -36 11
-45 27 -45 14 0 19 -7 19 -25 0 -18 5 -25 20 -25 17 0 20 -7 20 -41 0 -32 4
-42 20 -46 13 -3 20 -14 20 -29 0 -19 5 -24 25 -24 20 0 25 -5 25 -24 0 -15 7
-26 20 -29 11 -3 20 -9 19 -14 -1 -4 -1 -23 0 -40 1 -26 5 -33 21 -33 15 0 20
-7 20 -25 0 -18 5 -25 19 -25 16 0 21 -9 27 -45 5 -35 10 -45 25 -45 14 0 19
-7 19 -25 0 -18 5 -25 20 -25 14 0 20 -7 20 -24 0 -15 7 -26 19 -29 13 -3 21
-17 26 -46 5 -31 11 -41 26 -41 14 0 19 -7 19 -25 0 -18 5 -25 20 -25 17 0 20
-7 20 -41 0 -32 4 -42 20 -46 13 -3 20 -14 20 -29 0 -17 6 -24 20 -24 14 0 20
-7 20 -21 0 -12 8 -23 20 -26 14 -4 21 -17 26 -49 5 -34 11 -44 25 -44 14 0
19 -7 19 -25 0 -18 5 -25 19 -25 15 0 20 -10 26 -45 5 -35 10 -45 23 -43 12 2
18 -5 20 -24 2 -20 9 -28 23 -28 14 0 19 -7 19 -25 0 -18 5 -25 20 -25 17 0
20 -7 20 -45 0 -38 3 -45 19 -45 13 0 21 -8 23 -22 2 -15 11 -24 26 -26 19 -3
22 -9 22 -48 0 -37 3 -44 20 -44 15 0 20 -7 20 -25 0 -18 5 -25 20 -25 14 0
20 -7 20 -21 0 -12 8 -23 20 -26 14 -4 21 -17 26 -49 5 -34 11 -44 25 -44 14
0 19 -7 19 -25 0 -18 5 -25 19 -25 15 0 20 -10 25 -45 6 -36 11 -45 27 -45 14
0 19 -7 19 -25 0 -18 5 -25 20 -25 14 0 20 -7 20 -24 0 -15 7 -26 20 -29 16
-4 20 -14 20 -46 0 -34 3 -41 20 -41 14 0 20 -7 20 -21 0 -12 8 -23 20 -26 11
-3 20 -14 20 -24 0 -11 10 -24 23 -29 17 -7 18 -9 5 -9 -10 -1 -18 -6 -18 -13
0 -6 3 -8 7 -5 11 12 33 -14 33 -39 0 -17 6 -24 20 -24 15 0 20 -7 20 -25 0
-18 5 -25 19 -25 16 0 21 -9 27 -45 5 -35 10 -45 25 -45 14 0 19 -7 19 -25 0
-18 5 -25 20 -25 14 0 20 -7 21 -25 2 -45 14 -69 30 -60 5 4 9 -5 9 -20 0 -18
7 -28 25 -35 14 -5 25 -13 24 -17 -3 -21 3 -31 21 -36 11 -3 20 -9 19 -14 -1
-4 -1 -23 0 -40 1 -26 5 -33 21 -33 15 0 20 -7 20 -25 0 -18 5 -25 19 -25 13
0 20 -9 25 -30 3 -19 12 -30 23 -31 16 0 16 -1 -1 -8 -19 -7 -19 -8 2 -13 14
-4 22 -14 22 -28 0 -13 8 -24 20 -27 13 -3 20 -14 20 -29 0 -17 6 -24 20 -24
15 0 20 -7 20 -29 0 -42 10 -61 31 -61 14 0 19 -7 19 -25 0 -18 5 -25 20 -25
14 0 20 -7 20 -24 0 -13 6 -27 13 -29 9 -4 8 -8 -3 -17 -12 -10 -11 -11 8 -7
19 5 22 1 22 -29 0 -27 4 -34 20 -34 14 0 20 -7 20 -21 0 -12 8 -23 20 -26 14
-4 21 -17 26 -49 5 -34 11 -44 25 -44 14 0 19 -7 19 -25 0 -18 5 -25 20 -25
11 0 20 -7 20 -15 0 -19 21 -58 38 -68 6 -4 12 -19 12 -33 0 -18 5 -24 18 -22
12 2 18 -5 20 -24 2 -20 9 -28 22 -28 15 0 19 -9 22 -43 2 -34 6 -41 21 -39
12 2 17 -4 17 -22 0 -18 6 -25 23 -28 16 -2 23 -11 25 -30 2 -16 9 -28 18 -28
8 0 16 -15 20 -40 5 -30 11 -40 25 -40 14 0 19 -7 19 -25 0 -18 5 -25 19 -25
14 0 20 -10 25 -44 5 -32 12 -45 26 -49 12 -3 20 -14 20 -26 0 -14 6 -21 19
-21 15 0 20 -10 26 -47 5 -35 9 -43 14 -29 6 17 9 15 20 -12 7 -17 10 -36 6
-41 -3 -7 2 -11 14 -11 14 0 23 -9 27 -25 3 -13 15 -27 25 -30 14 -5 19 -16
19 -46 0 -32 3 -39 20 -39 15 0 20 -7 20 -25 0 -18 5 -25 19 -25 15 0 20 -10
27 -47 4 -27 9 -40 11 -30 3 9 8 17 13 17 5 0 7 -7 4 -15 -4 -8 -1 -15 5 -15
6 0 11 -11 11 -25 0 -18 5 -25 20 -25 15 0 20 -7 20 -25 0 -18 5 -25 19 -25
14 0 20 -10 25 -44 5 -32 12 -45 26 -49 12 -3 20 -14 20 -26 0 -14 6 -21 20
-21 15 0 20 -7 20 -29 0 -21 6 -32 20 -36 15 -5 20 -15 20 -41 0 -27 4 -34 20
-34 15 0 20 -7 20 -24 0 -18 6 -25 23 -28 18 -2 23 -10 25 -45 3 -35 7 -43 23
-43 14 0 19 -7 19 -25 0 -18 5 -25 20 -25 15 0 20 -7 20 -26 0 -17 6 -28 19
-31 13 -3 22 -17 26 -44 5 -29 11 -39 26 -39 14 0 19 -7 19 -25 0 -18 5 -25
19 -25 14 0 20 -10 25 -44 5 -33 12 -45 28 -49 14 -4 19 -11 14 -22 -4 -11 2
-19 19 -25 15 -6 25 -17 25 -29 0 -10 9 -21 20 -24 16 -4 20 -14 20 -46 0 -34
3 -41 20 -41 15 0 20 -7 20 -25 0 -18 5 -25 19 -25 15 0 20 -10 25 -45 6 -36
11 -45 27 -45 14 0 19 -7 19 -25 0 -18 5 -25 20 -25 15 0 20 -7 20 -25 0 -18
5 -25 19 -25 15 0 20 -10 25 -45 6 -36 11 -45 27 -45 14 0 19 -7 19 -25 0 -18
5 -25 20 -25 17 0 20 -7 20 -45 0 -38 3 -45 20 -45 15 0 20 -7 20 -25 0 -18 5
-25 20 -25 14 0 20 -7 20 -21 0 -12 8 -23 20 -26 14 -4 21 -17 26 -49 5 -34
11 -44 25 -44 14 0 19 -7 19 -25 0 -18 5 -25 19 -25 15 0 20 -10 25 -45 6 -36
11 -45 27 -45 14 0 19 -7 19 -25 0 -18 5 -25 20 -25 14 0 20 -7 20 -24 0 -15
7 -26 20 -29 12 -3 20 -14 20 -26 0 -21 3 -21 264 -21 145 0 271 3 280 6 10 4
16 18 16 39 0 19 5 37 12 41 8 5 9 2 5 -10 -5 -12 -3 -16 5 -14 7 3 14 22 16
42 2 27 9 40 22 43 14 4 21 18 26 49 5 34 11 44 25 44 14 0 19 7 19 25 0 18 5
25 20 25 17 0 20 7 20 45 0 38 3 45 20 45 15 0 20 7 20 25 0 18 5 25 19 25 16
0 21 9 27 45 5 35 10 45 25 45 16 0 19 8 19 45 0 38 3 45 19 45 14 0 21 8 23
28 2 19 8 26 20 24 12 -2 18 9 23 48 6 40 11 50 26 50 14 0 19 7 19 25 0 18 5
25 20 25 17 0 20 7 20 45 0 38 3 45 19 45 14 0 21 8 23 28 2 15 8 27 15 27 20
0 27 15 7 16 -17 0 -16 1 4 9 15 6 22 18 22 35 0 18 5 25 20 25 17 0 20 7 20
45 0 38 3 45 20 45 15 0 20 7 20 24 0 16 7 27 19 31 13 4 22 19 26 47 5 27 13
42 25 45 12 3 20 19 26 51 4 26 9 39 11 30 8 -33 23 -18 23 22 0 33 4 40 19
40 15 0 20 10 25 45 6 36 11 45 27 45 14 0 19 7 19 25 0 18 5 25 20 25 17 0
20 7 20 45 0 38 3 45 20 45 14 0 20 7 20 23 0 25 13 49 26 48 5 -1 9 3 9 8 0
5 3 13 8 17 4 4 7 15 7 25 0 9 9 19 20 22 16 4 20 14 20 46 0 34 3 41 20 41
16 0 20 7 20 30 0 23 5 30 19 30 15 0 20 10 25 45 6 36 11 45 27 45 13 0 19 7
19 24 0 15 7 26 20 29 11 3 20 9 19 14 -1 4 -1 23 0 41 1 25 5 32 20 32 14 0
21 8 23 27 2 16 9 29 16 29 25 3 27 6 7 14 -17 7 -17 9 -2 9 15 1 22 17 18 48
-1 6 9 13 21 15 19 2 24 10 26 45 3 35 7 43 23 43 14 0 19 7 19 30 0 23 4 30
20 30 14 0 20 7 20 23 0 42 12 67 31 67 15 0 19 8 20 43 1 23 3 34 6 25 2 -10
9 -18 15 -18 6 0 8 9 5 20 -3 11 -1 20 4 20 5 0 9 11 9 25 0 18 5 25 20 25 17
0 20 7 20 45 0 38 3 45 20 45 15 0 20 7 20 25 0 18 5 25 19 25 16 0 21 9 27
45 5 35 10 45 25 45 15 0 19 7 19 39 0 30 4 40 20 44 14 3 20 14 20 32 0 18 6
29 19 32 14 3 22 17 26 45 5 28 13 42 26 45 12 3 19 14 19 29 0 17 6 24 20 24
17 0 20 7 20 45 0 38 3 45 20 45 15 0 20 7 20 25 0 18 5 25 19 25 16 0 21 9
27 45 5 35 10 45 25 45 16 0 19 8 19 45 0 38 3 45 19 45 14 0 21 8 23 27 2 17
9 28 18 28 10 0 18 16 24 47 7 37 14 48 28 48 13 0 18 7 18 25 0 18 5 25 20
25 17 0 20 7 20 45 0 37 3 45 19 45 14 0 21 10 25 35 4 20 11 33 17 30 5 -4 9
1 9 9 0 9 5 16 10 16 6 0 10 11 10 25 0 18 5 25 20 25 17 0 20 7 20 45 0 38 3
45 20 45 15 0 20 7 20 25 0 18 5 25 19 25 14 0 20 10 25 44 5 31 12 45 26 49
13 3 20 16 22 43 3 40 23 57 31 27 3 -10 5 3 6 30 1 39 4 47 20 47 16 0 21 9
27 45 5 35 10 45 25 45 14 0 19 7 19 25 0 18 5 25 20 25 17 0 20 7 20 45 0 38
3 45 19 45 14 0 21 8 23 27 2 18 8 27 17 25 12 -3 12 0 1 12 -10 13 -10 16 4
16 10 0 19 11 22 29 4 17 14 31 25 34 15 4 19 14 19 46 0 34 3 41 20 41 16 0
20 7 20 30 0 23 5 30 19 30 15 0 20 10 25 45 6 36 11 45 27 45 13 0 19 7 19
24 0 15 7 26 20 29 16 4 20 14 20 46 0 34 3 41 20 41 15 0 20 7 20 26 0 18 6
28 22 32 21 5 21 6 2 13 -17 7 -17 8 -1 8 11 1 20 12 23 31 5 21 12 30 25 30
16 0 19 8 19 45 0 38 3 45 20 45 16 0 20 7 20 30 0 23 5 30 19 30 16 0 21 9
26 44 5 29 13 46 24 49 9 2 17 15 19 31 2 32 9 46 22 46 5 0 7 -8 4 -17 -5
-15 -4 -16 5 -3 6 8 11 30 11 48 0 25 4 32 19 32 14 0 20 10 25 44 5 32 12 45
27 49 11 3 19 9 18 14 -4 21 2 33 15 33 10 0 17 16 22 45 5 35 10 45 25 45 13
0 19 7 19 23 0 25 13 49 26 48 5 -1 11 15 14 35 3 25 11 39 25 44 11 4 20 13
21 21 0 8 2 25 2 37 1 15 10 26 22 29 13 3 20 14 20 29 0 17 6 24 20 24 17 0
20 7 20 45 0 38 3 45 20 45 14 0 20 7 20 21 0 12 8 23 20 26 14 4 21 17 26 49
5 34 11 44 25 44 16 0 19 7 19 41 0 32 4 42 20 46 13 3 20 14 20 29 0 17 6 24
18 24 14 0 21 11 28 47 6 32 14 48 24 48 9 0 16 11 18 27 2 20 9 28 23 28 16
0 19 7 19 41 0 32 4 42 19 46 13 3 22 17 26 43 4 26 13 40 26 43 13 3 19 14
19 31 0 19 5 26 20 26 17 0 20 7 20 45 0 38 3 45 20 45 15 0 20 7 20 25 0 18
5 25 19 25 15 0 20 10 25 45 6 36 11 45 27 45 14 0 19 7 19 30 0 24 4 30 23
31 16 1 18 2 5 6 -10 2 -18 8 -18 13 0 5 7 7 15 4 11 -5 15 2 15 26 0 23 5 33
20 37 14 4 21 17 26 49 5 34 11 44 25 44 14 0 19 7 19 25 0 18 5 25 20 25 17
0 20 7 20 45 0 38 3 45 19 45 14 0 21 8 23 28 2 15 8 26 16 24 7 -1 17 17 24
42 7 28 19 46 30 49 14 4 18 15 18 46 0 34 3 41 20 41 16 0 20 7 20 30 0 23 5
30 19 30 16 0 21 9 27 45 5 35 10 45 25 45 14 0 19 7 19 25 0 18 5 25 20 25
17 0 20 7 20 45 0 37 3 45 19 45 14 0 20 10 25 44 5 32 12 45 26 49 12 3 20
14 20 26 0 14 6 21 20 21 17 0 20 7 20 45 0 38 3 45 20 45 15 0 20 7 20 26 0
17 6 28 20 31 14 4 21 17 26 49 5 34 11 44 25 44 13 0 19 7 19 23 0 38 12 67
26 67 8 0 14 10 14 25 0 18 5 25 19 25 14 0 20 10 25 44 5 32 12 45 26 49 12
3 20 14 20 26 0 12 6 21 14 21 17 0 26 22 26 61 0 22 5 29 20 29 16 0 20 7 20
31 0 16 4 28 9 24 5 -3 12 -1 16 5 3 5 1 10 -4 10 -6 0 -11 5 -11 10 0 6 5 9
12 8 7 -2 14 11 18 27 4 21 11 30 25 30 20 0 22 3 24 55 1 23 6 30 21 30 16 0
20 7 20 30 0 23 4 30 20 30 17 0 20 7 20 45 0 37 3 45 19 45 13 0 20 9 25 30
3 19 12 30 23 31 16 0 16 1 -1 8 -19 7 -19 8 2 13 16 4 22 14 22 32 0 19 5 26
20 26 17 0 20 7 20 41 0 32 4 42 20 46 13 3 20 14 20 29 0 17 6 24 19 24 15 0
20 10 25 45 6 36 11 45 27 45 14 0 19 7 19 30 0 23 4 30 20 30 17 0 20 7 20
41 0 32 4 42 20 46 11 3 20 14 20 24 0 10 5 21 10 24 6 3 10 16 10 28 0 16 3
18 9 9 7 -11 10 -10 15 3 3 9 6 25 6 36 0 12 7 19 20 19 17 0 20 7 20 45 0 38
3 45 20 45 15 0 20 7 20 25 0 18 5 25 19 25 15 0 20 10 25 45 6 36 11 45 27
45 15 0 19 7 19 35 0 23 5 35 14 35 15 0 26 21 26 52 0 11 8 22 20 25 14 4 21
17 26 49 5 34 11 44 25 44 14 0 19 7 19 25 0 18 5 25 20 25 17 0 20 7 20 45 0
37 3 45 19 45 14 0 20 10 25 39 4 27 12 40 26 44 14 3 20 14 20 31 0 19 5 26
20 26 17 0 20 7 20 45 0 38 3 45 20 45 15 0 20 7 20 26 0 17 6 28 20 31 14 4
21 17 26 49 5 34 11 44 25 44 14 0 19 7 19 25 0 18 5 25 20 25 17 0 20 7 20
45 0 37 3 45 19 45 15 0 20 10 25 45 6 36 11 45 27 45 14 0 19 7 19 25 0 18 5
25 20 25 17 0 20 7 20 45 0 38 3 45 20 45 15 0 20 7 20 26 0 17 6 28 20 31 14
4 21 17 26 49 5 34 11 44 25 44 15 0 19 7 19 34 0 38 17 57 31 35 6 -9 9 0 9
29 0 34 3 42 19 42 15 0 20 10 25 45 6 36 11 45 27 45 14 0 19 7 19 25 0 15 6
25 14 25 10 0 17 16 22 45 5 34 11 45 24 45 13 0 19 11 24 39 3 22 11 43 18
47 8 5 9 2 5 -10 -4 -10 -3 -15 3 -11 5 3 12 21 16 39 3 21 13 36 24 39 14 4
20 16 22 48 2 35 6 43 21 41 13 -2 17 4 17 28 0 23 4 30 19 30 16 0 20 8 23
42 2 35 7 43 26 48 13 3 23 8 23 13 -3 35 1 47 17 48 14 0 14 2 -3 8 -19 8
-19 8 3 15 15 5 22 15 22 32 0 17 6 24 19 24 15 0 20 10 25 45 5 29 12 45 22
45 8 0 14 10 14 25 0 18 5 25 19 25 16 0 21 9 27 45 5 35 10 45 25 45 14 0 19
7 19 30 0 23 4 30 20 30 17 0 20 7 20 41 0 32 4 42 20 46 14 4 21 17 26 49 5
34 11 44 25 44 14 0 19 7 19 25 0 18 5 25 20 25 17 0 20 7 20 45 0 38 3 45 20
45 15 0 20 7 20 25 0 18 5 25 19 25 16 0 21 9 27 45 5 35 10 45 25 45 14 0 19
7 20 28 0 28 17 77 18 55 1 -7 5 -13 11 -13 5 0 9 3 9 8 -6 34 3 64 21 69 14
4 21 17 26 49 5 34 11 44 25 44 14 0 19 7 19 25 0 18 5 25 20 25 17 0 20 7 20
45 0 37 3 45 19 45 14 0 20 10 25 39 4 27 12 40 26 44 14 3 20 14 20 31 0 19
5 26 20 26 17 0 20 7 20 45 0 38 3 45 19 45 14 0 21 8 23 28 2 18 8 26 19 24
13 -2 18 9 23 42 5 32 12 45 26 49 14 3 20 14 20 31 0 19 5 26 20 26 17 0 20
7 20 41 0 32 4 42 20 46 11 3 20 14 20 25 0 11 8 22 20 25 14 4 21 17 26 49 5
34 11 44 25 44 14 0 19 7 19 25 0 18 5 25 20 25 14 0 20 7 20 21 0 12 8 23 19
26 13 3 22 17 26 43 4 26 13 40 26 43 11 3 19 14 19 25 0 11 9 22 20 25 12 3
20 14 20 26 0 14 6 21 20 21 15 0 20 7 20 25 0 18 5 25 19 25 16 0 21 9 27 45
5 35 10 45 25 45 14 0 19 7 19 25 0 18 5 25 19 25 13 0 21 8 23 23 2 14 11 23
26 25 13 2 22 10 22 22 0 10 9 20 20 23 12 3 20 14 20 26 0 14 6 21 20 21 15
0 20 7 20 25 0 18 5 25 20 25 13 0 20 7 20 20 0 13 10 24 25 30 14 5 25 16 25
25 0 8 9 15 20 15 15 0 20 7 20 25 0 18 5 25 19 25 13 0 21 8 23 23 2 14 11
23 26 25 14 2 22 10 22 23 0 12 7 19 20 19 15 0 20 7 20 25 0 23 4 25 40 25
36 0 40 3 40 24 0 18 6 25 23 28 12 2 22 10 22 18 0 8 9 17 20 20 11 3 21 15
23 27 2 16 13 22 43 27 30 5 39 11 39 26 0 15 7 20 25 20 18 0 25 5 25 19 0
15 10 21 40 26 29 5 40 12 40 25 0 13 11 19 40 24 29 4 40 11 40 24 0 15 -2
15 -11 2 -9 -13 -10 -13 -6 0 2 9 18 16 40 18 30 3 37 7 38 25 1 17 2 18 6 5
2 -10 8 -18 13 -18 4 0 7 8 6 18 -1 14 8 18 47 20 38 3 47 7 47 22 0 14 10 20
41 25 29 5 43 13 46 26 4 14 15 19 42 19 55 0 81 10 81 31 0 17 8 19 65 19 57
0 65 2 65 19 0 19 39 31 108 31 23 0 32 5 33 18 0 15 1 14 8 -2 7 -19 8 -19
13 2 6 20 12 22 86 22 95 0 112 5 113 34 0 20 1 20 9 1 7 -17 9 -17 9 -2 1 15
15 17 156 17 144 0 155 1 165 20 8 15 21 20 53 20 23 -1 124 2 225 6 l183 6
-1 228 c-1 226 -2 228 -23 234 -30 8 -7016 8 -7056 0 l-31 -6 0 -229 0 -229
88 -1 c48 -1 98 -4 112 -6 14 -3 60 -6 102 -6 67 -2 78 -4 78 -19 0 -17 22
-18 320 -18 200 0 320 -4 320 -10 0 -5 -7 -7 -15 -4 -8 4 -15 2 -15 -3 0 -15
164 -32 338 -35 147 -3 162 -5 162 -20 0 -15 9 -18 49 -18 26 0 76 -3 110 -6
50 -6 61 -10 61 -25 0 -16 11 -19 88 -21 60 -2 87 -7 88 -15 1 -7 2 -17 3 -23
0 -5 28 -10 61 -10 52 0 60 -2 60 -19 0 -15 10 -20 50 -26 33 -4 50 -12 50
-21 0 -7 12 -16 28 -20 48 -10 52 -13 52 -34 0 -17 6 -20 40 -20 36 0 40 -2
40 -25 0 -18 5 -25 20 -25 13 0 20 -7 20 -20 0 -13 7 -20 20 -20 15 0 20 -7
20 -24 0 -18 6 -25 23 -28 18 -2 23 -10 25 -45 3 -34 7 -43 22 -43 15 0 19 -9
22 -47 2 -37 7 -48 19 -47 19 1 27 -77 31 -276 l2 -115 6 125 6 125 2 -137 c1
-94 -2 -138 -9 -140 -13 -4 -16 -24 -18 -124 -1 -63 -4 -72 -21 -77 -18 -5
-20 -14 -20 -76 0 -64 -2 -71 -20 -71 -18 0 -20 -7 -20 -66 0 -56 -3 -67 -19
-71 -20 -5 -31 -41 -31 -99 0 -27 -4 -34 -20 -34 -17 0 -20 -7 -20 -50 0 -43
-3 -50 -20 -50 -17 0 -20 -7 -20 -45 0 -38 -3 -45 -19 -45 -15 0 -20 -10 -26
-50 -4 -31 -12 -50 -20 -50 -13 0 -25 -30 -25 -67 0 -16 -6 -23 -20 -23 -17 0
-20 -7 -20 -45 0 -38 -3 -45 -20 -45 -15 0 -20 -7 -20 -26 0 -16 -11 -36 -25
-50 -14 -13 -25 -34 -25 -49 0 -15 -6 -25 -14 -25 -10 0 -17 -16 -22 -45 -5
-35 -10 -45 -25 -45 -19 0 -25 -23 -20 -72 2 -12 -5 -18 -18 -18 -16 0 -21 -6
-21 -25 0 -18 -5 -25 -20 -25 -16 0 -21 -9 -26 -50 -5 -39 -10 -50 -23 -48
-11 2 -17 -6 -19 -24 -2 -20 -9 -28 -23 -28 -16 0 -19 -7 -19 -41 0 -32 -4
-42 -19 -46 -11 -3 -21 -17 -25 -34 -3 -18 -12 -29 -23 -30 -16 0 -16 -1 1 -8
19 -7 19 -8 -2 -13 -16 -4 -22 -14 -22 -32 0 -19 -5 -26 -20 -26 -16 0 -20 -7
-21 -32 -1 -18 -1 -37 0 -41 1 -5 -8 -11 -19 -14 -13 -3 -20 -14 -20 -29 0
-17 -6 -24 -19 -24 -16 0 -21 -9 -27 -45 -5 -35 -10 -45 -25 -45 -14 0 -19 -7
-19 -30 0 -24 -4 -30 -17 -28 -15 2 -19 -6 -21 -41 -2 -32 -8 -44 -22 -48 -12
-3 -21 -18 -25 -43 -5 -30 -10 -37 -22 -33 -11 4 -14 2 -9 -5 4 -7 2 -12 -3
-12 -6 0 -11 -11 -11 -25 0 -18 -5 -25 -20 -25 -17 0 -20 -7 -20 -41 0 -32 -4
-42 -20 -46 -13 -3 -20 -14 -20 -29 0 -17 -6 -24 -19 -24 -16 0 -21 -9 -27
-45 -5 -35 -10 -45 -25 -45 -13 0 -19 -7 -19 -24 0 -15 -7 -26 -20 -29 -16 -4
-20 -14 -20 -46 0 -34 -3 -41 -20 -41 -14 0 -20 -7 -20 -22 0 -23 -19 -63 -20
-43 -1 19 -29 -40 -30 -62 0 -16 -6 -23 -20 -23 -17 0 -20 -7 -20 -45 0 -38
-3 -45 -20 -45 -14 0 -20 -7 -20 -21 0 -12 -8 -23 -20 -26 -14 -4 -21 -17 -26
-49 -5 -34 -11 -44 -25 -44 -14 0 -19 -7 -19 -25 0 -18 -5 -25 -20 -25 -17 0
-20 -7 -20 -45 0 -38 -3 -45 -20 -45 -15 0 -20 -7 -20 -25 0 -17 -7 -29 -22
-35 -13 -5 -17 -9 -10 -9 6 -1 12 -6 12 -12 0 -5 -5 -7 -10 -4 -6 4 -13 -7
-16 -24 -5 -21 -12 -31 -25 -31 -16 0 -19 -8 -19 -51 0 -46 -2 -51 -20 -46
-16 4 -20 0 -20 -20 0 -16 -7 -27 -20 -30 -14 -4 -21 -17 -26 -49 -5 -34 -11
-44 -25 -44 -16 0 -19 -8 -20 -42 0 -24 -3 -37 -6 -30 -6 15 -33 16 -33 1 0
-5 5 -7 10 -4 5 3 10 1 10 -4 0 -6 -4 -11 -10 -11 -5 0 -10 -11 -10 -25 0 -18
-5 -25 -19 -25 -15 0 -20 -10 -25 -45 -6 -36 -11 -45 -27 -45 -14 0 -19 -7
-19 -25 0 -18 -5 -25 -20 -25 -17 0 -20 -7 -20 -45 0 -38 -3 -45 -20 -45 -14
0 -20 -7 -20 -24 0 -15 -7 -26 -19 -29 -14 -3 -21 -17 -26 -51 -6 -35 -11 -46
-23 -44 -10 2 -18 -5 -20 -17 -7 -49 -13 -65 -22 -65 -5 0 -7 8 -4 18 5 14 4
15 -5 2 -6 -8 -11 -28 -11 -43 0 -20 -6 -30 -20 -34 -14 -4 -21 -17 -26 -49
-5 -34 -11 -44 -25 -44 -14 0 -19 -7 -19 -25 0 -18 -5 -25 -20 -25 -17 0 -20
-7 -20 -45 0 -38 -3 -45 -20 -45 -15 0 -20 -7 -20 -25 0 -18 -5 -25 -19 -25
-14 0 -20 -10 -25 -44 -5 -32 -12 -45 -26 -49 -15 -4 -20 -14 -20 -40 0 -20
-5 -39 -12 -43 -8 -5 -9 -2 -5 9 3 10 2 17 -3 17 -5 0 -13 -19 -16 -41 -5 -28
-13 -43 -25 -46 -11 -3 -20 -19 -24 -45 -5 -28 -13 -42 -26 -45 -12 -3 -19
-14 -19 -29 0 -17 -6 -24 -20 -24 -17 0 -20 -7 -20 -45 0 -38 -3 -45 -20 -45
-15 0 -20 -7 -20 -25 0 -18 -5 -25 -19 -25 -15 0 -20 -10 -25 -45 -6 -36 -11
-45 -27 -45 -15 0 -19 -7 -19 -30 0 -24 -4 -30 -17 -28 -15 2 -19 -5 -21 -39
-2 -34 -7 -43 -21 -43 -14 0 -20 -10 -25 -44 -5 -32 -12 -45 -26 -49 -14 -3
-20 -14 -20 -31 0 -19 -5 -26 -20 -26 -17 0 -20 -7 -20 -45 0 -38 -3 -45 -20
-45 -15 0 -20 -7 -20 -25 0 -18 -5 -25 -19 -25 -16 0 -21 -9 -27 -45 -5 -35
-10 -45 -25 -45 -15 0 -19 -7 -19 -40 0 -37 -7 -45 -32 -41 -5 0 -8 -13 -8
-29 0 -23 -5 -30 -19 -30 -14 0 -20 -10 -25 -44 -5 -32 -12 -45 -26 -49 -12
-3 -20 -14 -20 -25 0 -11 -9 -22 -20 -25 -16 -4 -20 -14 -20 -46 0 -34 -3 -41
-20 -41 -16 0 -20 -7 -20 -30 0 -23 -5 -30 -19 -30 -16 0 -21 -9 -27 -45 -5
-35 -10 -45 -25 -45 -15 0 -19 -8 -20 -32 -1 -18 -1 -36 0 -40 0 -5 -4 -8 -10
-8 -6 0 -9 7 -5 15 3 8 2 15 -3 15 -10 0 -21 -35 -21 -67 0 -16 -6 -23 -19
-23 -14 0 -20 -10 -25 -44 -5 -32 -12 -45 -26 -49 -12 -3 -20 -14 -20 -26 0
-14 -6 -21 -20 -21 -17 0 -20 -7 -20 -45 0 -38 -3 -45 -20 -45 -15 0 -20 -7
-20 -26 0 -17 -6 -28 -20 -31 -14 -4 -21 -17 -26 -49 -5 -34 -11 -44 -25 -44
-14 0 -19 -7 -19 -30 0 -22 -4 -28 -15 -24 -8 4 -15 1 -15 -5 0 -6 5 -11 10
-11 6 0 10 -5 10 -11 0 -6 -7 -9 -15 -5 -11 4 -15 -2 -15 -24 0 -23 -5 -30
-19 -30 -15 0 -20 -10 -25 -45 -6 -36 -11 -45 -27 -45 -14 0 -19 -7 -19 -25 0
-18 -5 -25 -20 -25 -17 0 -20 -7 -20 -45 0 -38 -3 -45 -20 -45 -15 0 -20 -7
-20 -25 0 -18 -5 -25 -19 -25 -14 0 -20 -10 -25 -44 -5 -32 -12 -45 -26 -49
-14 -3 -20 -14 -20 -31 0 -16 -6 -26 -15 -26 -9 0 -12 -6 -8 -17 4 -11 3 -14
-5 -9 -8 5 -12 -4 -12 -28 0 -29 -4 -36 -19 -36 -15 0 -20 -10 -25 -45 -6 -36
-11 -45 -27 -45 -14 0 -19 -7 -19 -25 0 -18 -5 -25 -20 -25 -17 0 -20 -7 -20
-45 0 -38 -3 -45 -20 -45 -15 0 -20 -7 -20 -25 0 -18 -5 -25 -19 -25 -14 0
-20 -10 -25 -44 -5 -32 -12 -45 -26 -49 -16 -4 -20 -14 -20 -46 0 -34 -3 -41
-20 -41 -15 0 -20 -7 -20 -25 0 -18 -5 -25 -19 -25 -14 0 -20 -10 -25 -44 -5
-32 -12 -45 -26 -49 -14 -3 -20 -14 -20 -31 0 -19 -5 -26 -20 -26 -17 0 -20
-7 -20 -45 0 -38 -3 -45 -20 -45 -15 0 -20 -7 -20 -24 0 -14 -4 -27 -10 -31
-5 -3 -6 -13 -3 -22 5 -12 2 -15 -11 -10 -13 5 -18 0 -23 -23 -4 -21 -11 -30
-24 -30 -16 0 -19 -8 -19 -45 0 -38 -3 -45 -20 -45 -15 0 -20 -7 -20 -25 0
-18 -5 -25 -19 -25 -14 0 -20 -10 -25 -44 -5 -32 -12 -45 -26 -49 -14 -3 -20
-14 -20 -31 0 -19 -5 -26 -20 -26 -17 0 -20 -7 -20 -39 0 -30 -5 -41 -19 -46
-13 -4 -21 -19 -26 -50 -5 -36 -10 -45 -26 -45 -13 0 -19 -7 -19 -24 0 -15 -7
-26 -20 -29 -16 -4 -20 -14 -20 -47 0 -37 -2 -42 -20 -37 -17 4 -20 0 -20 -24
0 -22 -5 -29 -20 -29 -14 0 -20 -7 -20 -22 0 -41 -11 -66 -31 -71 -11 -3 -19
-14 -19 -26 0 -12 -6 -21 -14 -21 -10 0 -17 -16 -22 -45 -5 -35 -10 -45 -25
-45 -14 0 -19 -7 -19 -30 0 -16 -5 -30 -11 -30 -6 0 -9 -7 -5 -15 3 -8 1 -15
-3 -15 -5 0 -11 6 -14 13 -3 6 -8 -7 -12 -30 -5 -27 -13 -43 -24 -45 -9 -2
-16 -10 -17 -18 -1 -8 -2 -26 -2 -38 -1 -15 -10 -26 -22 -29 -13 -3 -20 -14
-20 -29 0 -17 -6 -24 -20 -24 -16 0 -20 -7 -21 -32 -1 -18 -1 -38 0 -45 1 -6
-9 -13 -21 -15 -15 -2 -24 -11 -26 -25 -2 -13 -10 -23 -17 -23 -9 0 -16 -17
-21 -45 -5 -35 -10 -45 -25 -45 -13 0 -19 -7 -19 -24 0 -14 -4 -27 -10 -31 -5
-3 -7 -12 -3 -20 3 -9 -1 -15 -11 -15 -15 0 -20 -11 -17 -38 1 -6 -7 -12 -17
-12 -16 0 -21 -10 -26 -45 -6 -36 -11 -45 -27 -45 -14 0 -19 -7 -19 -30 0 -23
-4 -30 -20 -30 -15 0 -20 -7 -20 -29 0 -39 -9 -61 -26 -61 -8 0 -14 -9 -14
-21 0 -12 -8 -23 -20 -26 -14 -4 -21 -17 -26 -49 -5 -34 -11 -44 -25 -44 -13
0 -19 -7 -19 -25 0 -13 -8 -29 -17 -34 -10 -6 -12 -11 -5 -11 17 0 15 -20 -3
-20 -9 0 -15 -9 -15 -25 0 -20 -5 -25 -25 -25 -18 0 -25 5 -25 20 0 13 -7 20
-20 20 -15 0 -20 7 -20 25 0 18 -5 25 -20 25 -15 0 -20 7 -20 25 0 13 -8 29
-17 34 -10 6 -12 11 -5 11 19 0 14 17 -8 23 -11 3 -20 14 -20 25 0 11 -9 22
-20 25 -12 3 -20 14 -20 26 0 14 -6 21 -20 21 -17 0 -20 7 -20 45 0 38 -3 45
-20 45 -15 0 -20 7 -20 25 0 18 -5 25 -19 25 -15 0 -20 10 -25 45 -6 36 -11
45 -27 45 -14 0 -19 7 -19 25 0 18 -5 25 -19 25 -14 0 -21 8 -23 28 -2 16 -9
27 -18 27 -9 0 -18 15 -24 42 -6 27 -15 43 -27 46 -11 3 -19 14 -19 26 0 14
-6 21 -20 21 -17 0 -20 7 -20 41 0 32 -4 42 -20 46 -13 3 -20 14 -20 29 0 17
-6 24 -20 24 -19 0 -24 10 -21 38 1 6 -7 12 -19 12 -11 0 -21 5 -21 10 -1 6
-3 15 -4 20 -1 6 -3 21 -4 35 -1 18 -7 25 -21 25 -15 0 -20 7 -20 25 0 18 -5
25 -19 25 -14 0 -20 10 -25 44 -5 32 -12 45 -26 49 -12 3 -20 14 -20 26 0 14
-6 21 -20 21 -15 0 -20 7 -20 29 0 17 -5 28 -12 27 -7 0 -14 4 -15 9 0 6 3 9
8 8 5 -2 9 2 9 7 0 6 -7 10 -15 10 -9 0 -15 9 -15 24 0 18 -6 25 -22 28 -15 2
-24 11 -26 24 -2 12 -12 24 -23 27 -15 4 -19 14 -19 46 0 34 -3 41 -20 41 -15
0 -20 7 -20 25 0 18 -5 25 -19 25 -14 0 -20 10 -25 44 -5 32 -12 45 -26 49
-12 3 -20 14 -20 26 0 14 -6 21 -20 21 -15 0 -20 7 -20 25 0 18 -5 25 -20 25
-15 0 -20 7 -22 28 0 15 -2 33 -2 41 -1 8 -11 17 -24 22 -13 5 -22 17 -22 29
0 13 -7 20 -20 20 -17 0 -20 7 -20 41 0 32 -4 42 -20 46 -13 3 -20 14 -20 29
0 17 -6 24 -20 24 -15 0 -20 7 -20 25 0 18 -5 25 -19 25 -16 0 -21 9 -27 45
-5 35 -10 45 -25 45 -14 0 -19 7 -19 25 0 18 -5 25 -19 25 -14 0 -20 10 -25
44 -5 32 -12 45 -26 49 -12 3 -20 14 -20 25 0 11 -9 22 -20 25 -15 4 -20 14
-20 36 0 24 -4 31 -20 31 -16 0 -20 7 -20 35 0 28 -4 35 -20 35 -15 0 -20 7
-20 25 0 18 -5 25 -19 25 -16 0 -21 9 -27 45 -5 35 -10 45 -25 45 -14 0 -19 7
-19 25 0 18 -5 25 -20 25 -15 0 -20 7 -20 25 0 16 -6 25 -15 25 -9 0 -20 17
-27 44 -7 28 -19 46 -30 49 -11 3 -18 14 -18 30 0 17 -5 24 -17 23 -14 -1 -19
8 -21 41 -3 35 -7 43 -23 43 -13 0 -19 7 -19 24 0 18 -6 25 -22 28 -23 3 -25
6 -27 58 -1 23 -6 30 -21 30 -15 0 -20 7 -20 25 0 18 -5 25 -20 25 -15 0 -20
7 -20 25 0 18 -5 25 -19 25 -14 0 -20 10 -25 44 -5 32 -12 45 -26 49 -12 3
-20 14 -20 26 0 14 -6 21 -20 21 -17 0 -20 7 -20 39 0 31 -4 41 -20 46 -13 4
-20 15 -20 30 0 17 -6 25 -22 27 -17 2 -24 11 -26 30 -2 16 -9 28 -18 28 -8 0
-16 15 -20 40 -5 30 -11 40 -25 40 -14 0 -19 7 -19 25 0 18 -5 25 -19 25 -15
0 -20 10 -25 45 -6 36 -11 45 -27 45 -14 0 -19 7 -19 25 0 18 -5 25 -20 25
-16 0 -20 7 -20 31 0 23 -4 30 -14 26 -16 -6 -26 13 -26 49 0 17 -8 27 -25 34
-15 6 -25 17 -25 30 0 13 -7 20 -20 20 -17 0 -20 7 -20 45 0 38 -3 45 -20 45
-15 0 -20 7 -20 25 0 18 -5 25 -19 25 -15 0 -20 10 -26 50 -5 33 -12 50 -21
50 -12 0 -14 836 -14 5950 0 3654 4 5950 9 5950 6 0 12 -15 14 -32 2 -18 5 39
6 127 4 381 14 680 22 683 5 2 9 10 9 18 0 9 -5 12 -10 9 -6 -3 -10 -1 -10 4
0 6 4 11 9 11 9 0 23 38 27 75 1 11 3 99 4 197 2 164 3 176 21 181 17 5 19 16
20 109 1 56 1 109 0 116 -1 6 7 12 19 12 18 0 20 6 20 63 0 95 11 167 25 167
16 0 25 33 25 98 0 45 3 52 20 52 18 0 20 7 20 70 0 63 2 70 20 70 17 0 20 7
20 50 0 43 3 50 20 50 15 0 20 7 22 28 0 15 2 32 3 37 2 6 3 23 4 38 1 16 5
26 11 22 6 -4 8 -11 5 -16 -4 -5 -2 -9 4 -9 5 0 13 20 17 45 5 35 10 45 25 45
16 0 19 8 19 45 0 38 3 45 20 45 15 0 20 7 20 25 0 18 5 25 19 25 16 0 21 9
27 45 5 35 10 45 25 45 14 0 19 7 19 25 0 18 5 25 20 25 14 0 20 7 20 21 0 12
8 23 20 26 11 3 20 13 20 23 0 12 9 20 23 22 14 2 23 11 25 26 2 14 10 22 23
22 14 0 19 7 19 25 0 18 5 25 20 25 13 0 20 7 20 19 0 13 8 21 23 23 14 2 23
11 25 26 3 18 10 22 43 22 35 0 39 3 39 25 0 20 5 25 25 25 18 0 25 5 25 19 0
15 10 21 40 26 30 5 40 11 40 25 0 15 9 19 48 22 38 2 47 6 46 21 -1 9 2 17 6
17 5 0 11 -8 13 -17 4 -14 5 -12 6 5 1 20 6 22 51 22 43 0 50 3 50 19 0 20 26
27 125 33 31 2 40 7 39 21 -2 15 8 17 70 19 94 2 88 0 114 26 20 20 31 22 142
22 107 0 119 2 113 17 -5 13 -2 15 11 10 9 -4 15 -3 12 2 -8 13 73 21 211 21
116 0 125 1 130 20 3 11 12 20 20 20 13 0 13 -3 3 -15 -10 -12 -10 -15 4 -15
9 0 16 7 16 15 0 11 19 15 93 17 l92 3 3 230 c2 127 0 254 -3 283 l-6 52
-3020 0 -3019 0 0 -24 c0 -13 -6 -27 -12 -29 -10 -4 -9 -8 2 -16 13 -9 12 -11
-5 -11 -13 0 -16 -3 -8 -8 9 -5 13 -65 15 -210 3 -174 1 -202 -12 -202 -12 0
-13 -2 -1 -9 7 -5 11 -13 7 -19 -3 -6 0 -13 6 -15 8 -3 4 -6 -7 -7 -49 -5 35
-18 118 -19 73 -1 87 -4 87 -17 0 -10 5 -14 16 -10 8 3 12 2 9 -4 -3 -5 55
-11 147 -13 84 -2 161 -6 170 -8 26 -7 34 -19 13 -19 -10 0 -15 -3 -11 -7 4
-5 78 -10 164 -13 137 -4 157 -7 154 -21 -3 -20 41 -29 146 -29 65 0 72 -2 72
-20 0 -18 7 -20 63 -21 81 -1 113 -11 109 -32 -2 -15 7 -17 62 -17 59 0 65 -2
68 -22 3 -20 10 -24 63 -28 47 -4 59 -8 57 -21 -1 -11 11 -18 45 -25 37 -7 48
-13 47 -26 -1 -13 6 -18 22 -18 14 0 27 -7 31 -17 9 -24 23 -33 56 -33 22 0
27 -4 27 -26 0 -21 4 -24 20 -19 16 5 20 2 20 -18 0 -21 6 -25 40 -31 31 -5
40 -11 40 -26 0 -15 7 -20 25 -20 20 0 25 -5 25 -25 0 -18 5 -25 20 -25 14 0
20 -7 20 -21 0 -12 8 -23 20 -26 11 -3 20 -14 20 -24 0 -11 7 -19 16 -19 8 0
20 -14 26 -31 6 -19 15 -28 24 -25 7 3 16 1 19 -4 3 -5 -5 -11 -17 -13 l-23
-4 23 -2 c18 -1 22 -7 22 -31 0 -23 4 -30 20 -30 15 0 20 -7 20 -25 0 -18 5
-25 19 -25 14 0 20 -10 25 -44 5 -32 12 -45 26 -49 16 -4 20 -14 20 -51 0 -39
3 -46 20 -46 17 0 20 -7 20 -46 0 -37 4 -47 20 -51 15 -4 20 -14 20 -37 0 -58
12 -105 25 -100 14 6 25 -45 25 -123 0 -46 3 -53 20 -53 19 0 20 -7 20 -104 0
-97 1 -104 19 -99 17 4 19 -5 23 -135 3 -114 7 -143 21 -157 12 -11 17 -35 18
-78 1 -34 3 -69 4 -77 1 -8 3 -84 4 -167 1 -115 4 -152 13 -150 9 1 12 -15 9
-59 -1 -37 2 -64 8 -68 8 -5 11 -1478 11 -5207 l0 -5200 -22 3 c-15 2 -24 11
-26 26 -2 14 -10 22 -23 22 -14 0 -19 7 -19 25 0 18 -5 25 -19 25 -16 0 -20 8
-23 38 -2 28 -7 37 -21 36 -12 -1 -20 7 -24 26 -3 16 -13 30 -24 33 -11 3 -19
14 -19 26 0 14 -6 21 -20 21 -15 0 -20 7 -20 25 0 18 -5 25 -20 25 -15 0 -20
7 -20 25 0 16 -6 25 -15 25 -9 0 -20 17 -27 45 -9 32 -17 45 -30 45 -13 0 -18
8 -18 25 0 18 -5 25 -20 25 -15 0 -20 7 -20 25 0 18 -5 25 -20 25 -13 0 -20 7
-20 20 0 10 -8 24 -17 29 -15 9 -15 12 -5 19 11 7 9 10 -7 15 -13 3 -21 13
-21 26 0 14 -6 21 -20 21 -15 0 -20 7 -20 25 0 18 -5 25 -20 25 -15 0 -20 7
-20 25 0 18 -5 25 -19 25 -14 0 -21 8 -23 28 -2 16 -9 27 -18 27 -8 0 -15 5
-15 12 0 6 -3 15 -7 19 -5 4 -8 18 -8 31 0 16 -6 23 -20 23 -15 0 -20 7 -20
25 0 18 -5 25 -20 25 -14 0 -20 7 -20 21 0 12 -8 23 -19 26 -13 3 -22 17 -26
44 -4 21 -11 39 -16 39 -4 0 -5 -7 -2 -17 4 -11 3 -14 -5 -9 -6 4 -14 22 -18
41 -4 25 -11 35 -25 35 -14 0 -19 7 -19 25 0 18 -5 25 -20 25 -15 0 -20 7 -20
25 0 18 -5 25 -19 25 -13 0 -20 9 -24 30 -4 19 -13 30 -24 31 -16 0 -15 2 2 9
19 8 19 9 -2 9 -19 1 -23 7 -23 31 0 23 -4 30 -20 30 -15 0 -20 7 -20 25 0 18
-5 25 -19 25 -13 0 -21 8 -23 23 -2 14 -11 23 -25 25 -16 2 -23 10 -23 26 0
12 -5 27 -12 34 -9 9 -9 12 1 12 7 0 9 5 6 10 -5 8 -11 7 -21 -1 -12 -9 -14
-6 -14 20 0 24 -4 31 -20 31 -15 0 -20 7 -20 24 0 18 -6 25 -22 28 -15 2 -24
11 -26 24 -2 12 -12 24 -23 27 -13 4 -19 14 -19 35 0 29 -21 58 -33 45 -4 -3
-7 6 -7 21 0 19 -7 29 -25 36 -15 6 -25 17 -25 30 0 13 -7 20 -20 20 -15 0
-20 7 -20 25 0 18 -5 25 -20 25 -15 0 -20 7 -20 25 0 17 -6 25 -17 26 -11 0
-13 3 -5 6 18 7 15 20 -8 26 -14 3 -20 14 -20 31 0 19 -5 26 -20 26 -15 0 -20
7 -20 25 0 18 -5 25 -20 25 -15 0 -20 7 -20 25 0 18 -5 25 -19 25 -15 0 -21
10 -26 39 -4 27 -13 41 -26 44 -11 3 -19 14 -19 26 0 14 -6 21 -20 21 -15 0
-20 7 -20 25 0 18 -5 25 -20 25 -15 0 -20 7 -20 25 0 18 -5 25 -19 25 -15 0
-20 10 -25 45 -6 36 -11 45 -27 45 -14 0 -19 7 -19 25 0 18 -5 25 -20 25 -15
0 -20 7 -20 25 0 18 -5 25 -20 25 -14 0 -20 7 -20 21 0 12 -8 23 -19 26 -13 3
-22 17 -26 44 -5 29 -11 39 -26 39 -14 0 -19 7 -19 25 0 18 -5 25 -20 25 -15
0 -20 7 -20 25 0 18 -5 25 -20 25 -15 0 -20 7 -20 25 0 18 -5 25 -19 25 -15 0
-21 10 -26 41 -5 29 -13 43 -26 46 -12 3 -19 14 -19 29 0 17 -6 24 -20 24 -15
0 -20 7 -20 25 0 18 -5 25 -19 25 -15 0 -20 10 -25 45 -6 36 -11 45 -27 45
-14 0 -19 7 -19 25 0 14 -5 25 -11 25 -6 0 -8 7 -5 16 4 12 2 15 -9 10 -12 -4
-15 2 -15 29 0 28 -4 35 -20 35 -15 0 -20 7 -21 30 -3 59 -3 60 -40 45 -12 -4
-24 4 -40 27 -28 40 -222 308 -588 813 -151 209 -394 544 -539 745 -367 507
-370 510 -398 510 -21 0 -24 5 -24 34 0 23 -7 40 -19 48 -10 7 -21 23 -25 36
-4 13 -15 22 -27 22 -14 0 -19 7 -19 25 0 18 -5 25 -20 25 -15 0 -20 7 -20 25
0 18 -5 25 -19 25 -15 0 -21 10 -26 39 -4 27 -13 41 -26 44 -11 3 -19 14 -19
25 0 11 -9 22 -20 25 -12 3 -20 14 -20 26 0 14 -6 21 -20 21 -15 0 -20 7 -20
25 0 18 -5 25 -19 25 -14 0 -20 10 -25 41 -5 29 -12 43 -26 46 -13 3 -20 14
-20 29 0 17 -6 24 -20 24 -15 0 -20 7 -20 25 0 18 -5 25 -20 25 -15 0 -20 7
-20 25 0 18 -5 25 -19 25 -15 0 -21 10 -26 41 -5 28 -13 43 -26 46 -10 3 -19
15 -21 27 -2 13 -10 20 -21 20 -12 -1 -17 5 -17 22 0 17 -6 24 -20 24 -15 0
-20 7 -20 25 0 18 -5 25 -19 25 -15 0 -20 10 -25 45 -6 36 -11 45 -27 45 -14
0 -19 7 -19 25 0 18 -5 25 -20 25 -15 0 -20 7 -20 25 0 18 -5 25 -20 25 -13 0
-20 7 -20 20 0 12 -9 24 -22 29 -13 5 -23 14 -24 22 0 8 -2 26 -2 42 -2 20 -7
27 -22 27 -15 0 -20 7 -20 25 0 18 -5 25 -20 25 -13 0 -20 7 -20 20 0 13 -7
20 -20 20 -18 0 -22 8 -19 38 0 4 -10 9 -23 12 -19 5 -24 13 -26 48 -3 34 -7
42 -23 42 -14 0 -19 7 -19 25 0 18 -5 25 -20 25 -15 0 -20 7 -20 25 0 20 -5
25 -25 25 -20 0 -25 5 -25 25 0 18 -5 25 -20 25 -17 0 -20 7 -20 45 0 38 -3
45 -19 45 -13 0 -21 8 -23 23 -2 14 -11 23 -25 25 -17 3 -23 10 -23 28 0 17
-6 24 -19 24 -13 0 -21 8 -23 23 -2 15 -9 21 -20 19 -15 -2 -18 5 -18 38 0 34
-4 43 -20 47 -11 3 -23 16 -26 28 -3 13 -14 25 -25 28 -11 3 -19 14 -19 26 0
14 -6 21 -20 21 -15 0 -20 7 -20 25 0 18 -5 25 -19 25 -15 0 -20 10 -25 45 -6
36 -11 45 -27 45 -14 0 -19 7 -19 25 0 18 -5 25 -20 25 -15 0 -20 7 -20 25 0
18 -5 25 -20 25 -14 0 -20 7 -20 21 0 12 -8 23 -19 26 -13 3 -22 17 -26 43 -4
26 -13 40 -26 43 -11 3 -19 14 -19 26 0 14 -6 21 -20 21 -15 0 -20 7 -20 25 0
18 -5 25 -20 25 -15 0 -20 7 -20 25 0 18 -5 25 -19 25 -16 0 -21 9 -27 45 -5
35 -10 45 -25 45 -14 0 -19 7 -19 25 0 18 -5 25 -20 25 -15 0 -20 7 -20 25 0
18 -5 25 -20 25 -14 0 -20 7 -20 21 0 12 -8 23 -19 26 -13 3 -22 17 -26 44 -5
29 -11 39 -26 39 -14 0 -19 7 -19 25 0 18 -5 25 -20 25 -15 0 -20 7 -20 25 0
18 -5 25 -20 25 -13 0 -20 7 -20 20 0 10 -9 24 -20 30 -12 7 -22 25 -26 50 -5
30 -11 40 -25 40 -14 0 -19 7 -19 25 0 18 -5 25 -20 25 -14 0 -20 7 -20 21 0
12 -8 23 -19 26 -11 3 -22 16 -25 29 -4 15 -14 24 -26 24 -17 0 -20 7 -20 41
0 32 -4 42 -20 46 -11 3 -20 13 -20 23 0 10 -9 20 -20 23 -12 3 -20 14 -20 25
0 14 -8 22 -22 24 -15 2 -24 11 -26 26 -2 14 -10 22 -23 22 -16 0 -19 7 -19
45 0 38 -3 45 -20 45 -15 0 -20 7 -20 25 0 20 -5 25 -25 25 -20 0 -25 5 -25
25 0 18 -5 25 -20 25 -15 0 -20 7 -20 25 0 18 -5 25 -19 25 -15 0 -20 10 -26
45 -5 35 -10 45 -23 43 -12 -2 -18 5 -20 25 -2 19 -9 27 -23 27 -13 0 -19 7
-19 24 0 17 -5 23 -17 22 -12 0 -19 7 -21 22 -2 13 -10 22 -22 22 -13 0 -19
11 -24 44 -5 32 -12 45 -26 49 -12 3 -20 14 -20 26 0 14 -6 21 -20 21 -15 0
-20 7 -20 25 0 18 -5 25 -20 25 -15 0 -20 7 -20 25 0 18 -5 25 -19 25 -16 0
-21 9 -27 45 -5 35 -10 45 -25 45 -14 0 -19 7 -19 25 0 18 -5 25 -20 25 -15 0
-20 7 -20 25 0 18 -5 25 -20 25 -14 0 -20 7 -20 21 0 12 -8 23 -19 26 -13 3
-22 17 -26 44 -5 29 -11 39 -26 39 -14 0 -19 7 -19 25 0 18 -5 25 -20 25 -15
0 -20 7 -20 25 0 18 -5 25 -20 25 -15 0 -20 7 -20 25 0 18 -5 25 -19 25 -16 0
-21 9 -27 45 -5 35 -10 45 -25 45 -14 0 -19 7 -19 25 0 18 -5 25 -20 25 -14 0
-20 7 -20 21 0 12 -8 23 -20 26 -11 3 -20 14 -20 25 0 11 -9 22 -20 25 -14 4
-22 17 -26 44 -5 29 -11 39 -25 39 -14 0 -19 7 -19 25 0 18 -5 25 -20 25 -15
0 -20 7 -20 25 0 20 -5 25 -25 25 -15 0 -25 5 -24 13 3 26 -2 35 -21 40 -16 4
-20 14 -20 46 0 34 -3 41 -20 41 -15 0 -20 7 -20 25 0 20 -5 25 -25 25 -20 0
-25 5 -25 25 0 18 -5 25 -20 25 -15 0 -20 7 -20 25 0 18 -5 25 -20 25 -17 0
-20 7 -20 40 0 33 -3 40 -20 40 -12 0 -22 9 -26 24 -3 13 -14 26 -25 29 -11 3
-19 14 -19 26 0 14 -6 21 -20 21 -15 0 -20 7 -20 25 0 18 -5 25 -19 25 -15 0
-20 10 -25 45 -6 36 -11 45 -27 45 -14 0 -19 7 -19 25 0 18 -5 25 -20 25 -15
0 -20 7 -20 25 0 18 -5 25 -20 25 -15 0 -20 7 -20 25 0 18 -5 25 -19 25 -16 0
-21 9 -27 45 -5 34 -10 45 -23 43 -10 -2 -17 5 -19 18 -2 12 -12 24 -23 27
-11 3 -19 14 -19 26 0 14 -6 21 -20 21 -15 0 -20 7 -20 25 0 18 -5 25 -19 25
-15 0 -20 10 -25 45 -6 36 -11 45 -27 45 -14 0 -19 7 -19 25 0 18 -5 25 -20
25 -15 0 -20 7 -20 25 0 18 -5 25 -19 25 -14 0 -20 10 -25 39 -4 27 -12 40
-26 44 -14 3 -20 14 -20 31 0 19 -5 26 -20 26 -15 0 -20 7 -20 25 0 18 -5 25
-20 25 -13 0 -20 7 -20 19 0 10 -9 21 -20 24 -11 3 -20 14 -20 24 0 11 -11 29
-25 41 -14 13 -25 33 -25 47 0 18 -5 25 -20 25 -15 0 -20 7 -20 25 0 18 -5 25
-20 25 -15 0 -20 7 -20 25 0 18 -5 25 -20 25 -13 0 -20 7 -20 19 0 22 -23 44
-35 33 -5 -4 -5 -1 -1 6 4 7 12 10 17 7 5 -4 9 -1 9 6 0 6 -8 9 -20 6 -17 -4
-20 0 -20 29 0 27 -4 34 -20 34 -14 0 -20 7 -20 21 0 12 -8 23 -19 26 -11 3
-21 15 -23 27 -2 13 -11 22 -25 24 -17 3 -23 10 -23 28 0 17 -5 24 -20 24 -11
0 -20 5 -20 11 0 6 7 9 15 6 8 -4 17 -2 20 3 4 6 -3 10 -14 10 -16 0 -21 6
-21 25 0 18 -5 25 -20 25 -13 0 -20 7 -20 20 0 13 -10 24 -25 30 -15 6 -25 17
-25 30 0 13 -7 20 -20 20 -15 0 -20 7 -21 28 0 15 -5 36 -10 47 -9 19 -9 18
-5 -2 8 -42 -11 -23 -20 20 -7 33 -14 43 -32 45 -16 3 -22 10 -22 28 0 17 -5
24 -20 24 -15 0 -20 7 -20 25 0 18 -5 25 -20 25 -15 0 -20 7 -20 25 0 16 -6
25 -15 25 -18 0 -20 20 -2 21 6 0 1 5 -12 10 -15 6 -21 14 -17 24 4 10 -3 19
-19 25 -15 6 -25 17 -25 30 0 13 -7 20 -20 20 -15 0 -20 7 -20 25 0 18 -5 25
-19 25 -14 0 -21 8 -23 28 -2 19 -8 26 -20 24 -10 -2 -18 2 -18 8 0 5 8 10 17
10 14 0 13 3 -5 16 -12 8 -22 24 -22 35 0 12 -7 19 -20 19 -15 0 -20 7 -20 25
0 18 -5 25 -20 25 -15 0 -20 7 -20 25 0 18 -5 25 -20 25 -14 0 -20 7 -20 21 0
12 -8 23 -20 26 -11 3 -20 14 -20 24 0 19 -51 19 -2165 19 -2132 0 -2165 0
-2165 -19z m510 -561 c0 -5 -4 -10 -10 -10 -5 0 -10 5 -10 10 0 6 5 10 10 10
6 0 10 -4 10 -10z m5040 -1100 c0 -5 -4 -10 -10 -10 -5 0 -10 5 -10 10 0 6 5
10 10 10 6 0 10 -4 10 -10z m8530 -360 c0 -5 -5 -10 -11 -10 -5 0 -7 5 -4 10
3 6 8 10 11 10 2 0 4 -4 4 -10z m8310 -6540 c0 -5 -4 -10 -10 -10 -5 0 -10 5
-10 10 0 6 5 10 10 10 6 0 10 -4 10 -10z m1077 -245 c0 -8 -4 -12 -9 -9 -4 3
-8 9 -8 15 0 5 4 9 8 9 5 0 9 -7 9 -15z m-9390 -4581 c-3 -3 -12 -4 -19 -1 -8
3 -5 6 6 6 11 1 17 -2 13 -5z m6983 -1505 c0 -5 -4 -9 -10 -9 -5 0 -10 7 -10
16 0 8 5 12 10 9 6 -3 10 -10 10 -16z m-17448 -486 c-5 -59 -10 -63 -11 -10
-1 26 3 47 7 47 4 0 6 -17 4 -37z m17318 -2843 c0 -5 -2 -10 -4 -10 -3 0 -8 5
-11 10 -3 6 -1 10 4 10 6 0 11 -4 11 -10z m-16468 -417 c-815 -2 -2149 -2
-2965 0 -815 1 -148 2 1483 2 1631 0 2298 -1 1482 -2z"/>
<path d="M742 26123 c2 -209 6 -185 10 70 2 75 0 137 -4 137 -5 0 -7 -93 -6
-207z"/>
<path d="M13340 25725 c0 -8 2 -15 4 -15 2 0 6 7 10 15 3 8 1 15 -4 15 -6 0
-10 -7 -10 -15z"/>
<path d="M16300 24260 c0 -5 5 -10 10 -10 6 0 10 5 10 10 0 6 -4 10 -10 10 -5
0 -10 -4 -10 -10z"/>
<path d="M14963 23315 c0 -33 2 -45 4 -27 2 18 2 45 0 60 -2 15 -4 0 -4 -33z"/>
<path d="M28770 17860 c0 -6 7 -10 15 -10 8 0 15 2 15 4 0 2 -7 6 -15 10 -8 3
-15 1 -15 -4z"/>
<path d="M22345 17850 c4 -6 11 -8 16 -5 14 9 11 15 -7 15 -8 0 -12 -5 -9 -10z"/>
<path d="M22403 17853 c15 -2 39 -2 55 0 15 2 2 4 -28 4 -30 0 -43 -2 -27 -4z"/>
<path d="M28825 17850 c4 -6 11 -8 16 -5 14 9 11 15 -7 15 -8 0 -12 -5 -9 -10z"/>
<path d="M23558 17763 c7 -3 16 -2 19 1 4 3 -2 6 -13 5 -11 0 -14 -3 -6 -6z"/>
<path d="M25985 15640 c3 -5 8 -10 11 -10 2 0 4 5 4 10 0 6 -5 10 -11 10 -5 0
-7 -4 -4 -10z"/>
<path d="M21518 10993 c7 -3 16 -2 19 1 4 3 -2 6 -13 5 -11 0 -14 -3 -6 -6z"/>
<path d="M3140 10199 c0 -5 5 -7 10 -4 6 3 10 8 10 11 0 2 -4 4 -10 4 -5 0
-10 -5 -10 -11z"/>
<path d="M2841 9204 c0 -11 3 -14 6 -6 3 7 2 16 -1 19 -3 4 -6 -2 -5 -13z"/>
<path d="M17070 9160 c0 -5 5 -10 11 -10 5 0 7 5 4 10 -3 6 -8 10 -11 10 -2 0
-4 -4 -4 -10z"/>
<path d="M22210 9049 c0 -5 5 -7 10 -4 6 3 10 8 10 11 0 2 -4 4 -10 4 -5 0
-10 -5 -10 -11z"/>
<path d="M744 8040 c0 -118 2 -167 3 -107 2 59 2 155 0 215 -1 59 -3 10 -3
-108z"/>
<path d="M19811 8024 c0 -11 3 -14 6 -6 3 7 2 16 -1 19 -3 4 -6 -2 -5 -13z"/>
</g>
</svg>
